<svg width="202" height="69" viewBox="0 0 202 69" fill="none" xmlns="http://www.w3.org/2000/svg">
<path d="M70.22 23.6614V0.337057L74.9051 0.337057L81.5114 20.0549L88.1177 0.337057L92.8028 0.337057V23.6614H90.2074V3.10092H89.7356L82.9607 22.8187L80.062 22.8187L73.2872 3.10092H72.8153V23.6614H70.22Z" fill="white"/>
<path d="M98.3627 23.6614L104.767 0.337057L110.429 0.337057L116.833 23.6614H114.272L112.586 17.6618L102.61 17.6618L100.924 23.6614H98.3627ZM106.722 2.56163L103.183 15.3361L112.013 15.3361L108.474 2.56163L106.722 2.56163Z" fill="white"/>
<path d="M131.229 14.0553V11.7296H137.667V23.1895C134.835 23.7288 132.308 23.9984 130.083 23.9984C126.69 23.9984 124.33 23.021 123.005 21.066C121.701 19.1111 121.05 16.1001 121.05 12.0329C121.05 7.9433 121.701 4.92103 123.005 2.9661C124.33 0.9887 126.667 0 130.016 0C132.105 0 134.274 0.224704 136.521 0.674113L137.667 0.876346L137.566 3.03351C134.779 2.56163 132.364 2.32569 130.319 2.32569C127.735 2.32569 125.993 3.07845 125.094 4.58397C124.196 6.06702 123.746 8.55 123.746 12.0329C123.746 15.4934 124.196 17.9764 125.094 19.4819C125.993 20.9649 127.724 21.7064 130.285 21.7064C131.858 21.7064 133.465 21.5492 135.105 21.2346V14.0553H131.229Z" fill="white"/>
<path d="M144.655 23.6614V0.337057L147.25 0.337057V23.6614H144.655Z" fill="white"/>
<path d="M168.93 23.2906C166.615 23.7625 164.537 23.9984 162.694 23.9984C160.851 23.9984 159.357 23.7513 158.211 23.2569C157.088 22.7401 156.211 21.9536 155.582 20.8975C154.975 19.8189 154.549 18.5943 154.301 17.2236C154.077 15.8304 153.964 14.1002 153.964 12.0329C153.964 9.96564 154.077 8.23542 154.301 6.84225C154.549 5.42661 154.975 4.1795 155.582 3.10092C156.211 2.02234 157.088 1.23587 158.211 0.741525C159.335 0.247175 160.795 0 162.593 0C164.391 0 166.503 0.247175 168.93 0.741525L168.829 2.93239C166.559 2.52793 164.537 2.32569 162.761 2.32569C160.29 2.32569 158.649 3.06722 157.84 4.55027C157.054 6.01084 156.661 8.5163 156.661 12.0666C156.661 13.8418 156.728 15.2687 156.863 16.3472C157.02 17.4258 157.312 18.4033 157.739 19.2796C158.166 20.1335 158.784 20.7515 159.593 21.1335C160.425 21.493 161.627 21.6727 163.2 21.6727C164.795 21.6727 166.671 21.4705 168.829 21.066L168.93 23.2906Z" fill="white"/>
<path d="M84.6797 67.666V57.1161H72.8153V67.666H70.22V44.3417H72.8153L72.8153 54.7904H84.6797L84.6797 44.3417H87.2413L87.2413 67.666H84.6797Z" fill="white"/>
<path d="M94.5526 56.105C94.5526 59.5205 95.002 61.981 95.9009 63.4865C96.7997 64.9696 98.5299 65.7111 101.092 65.7111C103.676 65.7111 105.406 64.9808 106.282 63.5202C107.181 62.0596 107.63 59.6103 107.63 56.1724C107.63 52.7344 107.17 50.2289 106.248 48.656C105.327 47.0831 103.597 46.2966 101.058 46.2966C98.5411 46.2966 96.8221 47.0831 95.9009 48.656C95.002 50.2065 94.5526 52.6894 94.5526 56.105ZM110.327 56.1724C110.327 60.3294 109.664 63.3404 108.338 65.2055C107.012 67.0705 104.597 68.0031 101.092 68.0031C97.6086 68.0031 95.2043 67.0481 93.8785 65.1381C92.5528 63.2281 91.8899 60.2283 91.8899 56.1387C91.8899 52.0266 92.564 48.9818 93.9122 47.0044C95.2604 45.0046 97.6535 44.0046 101.092 44.0046C104.53 44.0046 106.923 44.9933 108.271 46.9707C109.642 48.9481 110.327 52.0153 110.327 56.1724Z" fill="white"/>
<path d="M117.38 60.6552C117.38 64.0258 119.2 65.7111 122.841 65.7111C124.728 65.7111 126.144 65.3178 127.088 64.5314C128.054 63.7224 128.537 62.4304 128.537 60.6552V44.3417H131.099V60.5878C131.099 63.1944 130.402 65.0819 129.009 66.2504C127.638 67.4188 125.605 68.0031 122.908 68.0031C120.212 68.0031 118.178 67.4188 116.807 66.2504C115.459 65.0819 114.785 63.1944 114.785 60.5878V44.3417H117.38V60.6552Z" fill="white"/>
<path d="M142.952 46.2629C139.581 46.2629 137.896 47.5325 137.896 50.0716C137.896 51.4873 138.278 52.4647 139.042 53.004C139.828 53.5209 141.401 54.0489 143.761 54.5882C146.143 55.105 147.828 55.7904 148.816 56.6442C149.805 57.4757 150.3 58.8576 150.3 60.79C150.3 65.5762 147.817 67.9694 142.851 67.9694C141.21 67.9694 139.154 67.7784 136.682 67.3964L135.469 67.2278L135.739 65.0707C138.795 65.4751 141.12 65.6774 142.716 65.6774C146.041 65.6774 147.704 64.1157 147.704 60.9923C147.704 59.7339 147.333 58.8351 146.592 58.2958C145.873 57.7341 144.513 57.2622 142.514 56.8802C139.884 56.3184 138.019 55.5994 136.918 54.723C135.817 53.8242 135.267 52.3299 135.267 50.2402C135.267 46.0607 137.772 43.9709 142.783 43.9709C144.424 43.9709 146.39 44.1394 148.682 44.4765L149.828 44.645L149.592 46.8359C146.468 46.4539 144.255 46.2629 142.952 46.2629Z" fill="white"/>
<path d="M154.651 67.666V44.3417H168.841V46.6337H157.246V54.6893H166.819V56.9476H157.246V65.374H168.841V67.666H154.651Z" fill="white"/>
<path d="M70.22 37.1721V32.4236H71.8487C72.4321 32.4236 72.8754 32.5355 73.1785 32.7595C73.4837 32.9834 73.6363 33.3085 73.6363 33.7346C73.6363 33.9803 73.5823 34.1901 73.4744 34.3641C73.3664 34.538 73.2076 34.6663 72.9979 34.7489C73.2346 34.8141 73.4162 34.9359 73.5429 35.1142C73.6695 35.2925 73.7329 35.5099 73.7329 35.7665C73.7329 36.2318 73.5917 36.5818 73.3093 36.8166C73.029 37.0493 72.6128 37.1678 72.0605 37.1721H70.22ZM71.3131 35.1533V36.2916H72.0294C72.2266 36.2916 72.3782 36.2448 72.484 36.1513C72.5899 36.0556 72.6429 35.9219 72.6429 35.7502C72.6429 35.3545 72.455 35.1555 72.0792 35.1533H71.3131ZM71.3131 34.4032H71.883C72.1217 34.401 72.292 34.3554 72.3937 34.2662C72.4955 34.1771 72.5463 34.0455 72.5463 33.8716C72.5463 33.6716 72.4913 33.5281 72.3813 33.4411C72.2712 33.352 72.0937 33.3074 71.8487 33.3074H71.3131V34.4032Z" fill="#F8B054"/>
<path d="M77.0325 37.1721H75.9425V32.4236H77.0325V37.1721Z" fill="#F8B054"/>
<path d="M82.8796 32.4236V35.5317C82.8796 35.8839 82.808 36.1894 82.6647 36.4481C82.5215 36.7047 82.3159 36.9003 82.0481 37.0352C81.7803 37.17 81.4636 37.2374 81.0982 37.2374C80.546 37.2374 80.111 37.0873 79.7934 36.7873C79.4757 36.4872 79.3138 36.0763 79.3075 35.5545V32.4236H80.4069V35.5773C80.4193 36.097 80.6498 36.3568 81.0982 36.3568C81.3245 36.3568 81.4958 36.2916 81.6121 36.1611C81.7284 36.0306 81.7865 35.8187 81.7865 35.5251V32.4236H82.8796Z" fill="#F8B054"/>
<path d="M86.7803 35.4958H86.1886V37.1721H85.0955V32.4236H86.8799C87.4177 32.4236 87.8381 32.5486 88.1412 32.7986C88.4443 33.0487 88.5959 33.402 88.5959 33.8586C88.5959 34.189 88.5315 34.463 88.4028 34.6804C88.2762 34.8979 88.0768 35.074 87.8049 35.2088L88.7516 37.1232V37.1721H87.5806L86.7803 35.4958ZM86.1886 34.6119H86.8799C87.0875 34.6119 87.2433 34.5554 87.3471 34.4423C87.453 34.3271 87.5059 34.1673 87.5059 33.9629C87.5059 33.7585 87.453 33.5987 87.3471 33.4835C87.2412 33.3661 87.0855 33.3074 86.8799 33.3074H86.1886V34.6119Z" fill="#F8B054"/>
<path d="M94.6267 34.8957C94.6267 35.3588 94.5447 35.7686 94.3807 36.1252C94.2167 36.4818 93.9831 36.7568 93.68 36.9504C93.3789 37.1417 93.0353 37.2374 92.6492 37.2374C92.263 37.2374 91.9204 37.145 91.6215 36.9601C91.3225 36.7732 91.0889 36.5068 90.9208 36.1611C90.7547 35.8154 90.6675 35.4186 90.6592 34.9707V34.7033C90.6592 34.238 90.7401 33.8281 90.9021 33.4737C91.0661 33.1171 91.2997 32.8421 91.6028 32.6486C91.908 32.4551 92.2547 32.3583 92.6429 32.3583C93.027 32.3583 93.3696 32.454 93.6707 32.6453C93.9717 32.8367 94.2053 33.1095 94.3714 33.4639C94.5395 33.8162 94.6247 34.2206 94.6267 34.6772V34.8957ZM93.5149 34.6967C93.5149 34.2249 93.4392 33.8673 93.2876 33.6237C93.1381 33.3781 92.9232 33.2552 92.6429 33.2552C92.0948 33.2552 91.8052 33.6857 91.7741 34.5467L91.7709 34.8957C91.7709 35.361 91.8447 35.7186 91.9921 35.9687C92.1395 36.2187 92.3585 36.3437 92.6492 36.3437C92.9253 36.3437 93.1381 36.2209 93.2876 35.9752C93.4371 35.7295 93.5129 35.3762 93.5149 34.9153V34.6967Z" fill="#F8B054"/>
<path d="M103.627 37.1721H102.54L100.933 34.2173V37.1721H99.8401V32.4236H100.933L102.537 35.3784V32.4236H103.627V37.1721Z" fill="#F8B054"/>
<path d="M107.014 37.1721H105.924V32.4236H107.014V37.1721Z" fill="#F8B054"/>
<path d="M112.117 35.1599H110.398V36.2916H112.428V37.1721H109.305V32.4236H112.434V33.3074H110.398V34.3086H112.117V35.1599Z" fill="#F8B054"/>
<path d="M116.089 35.4958H115.497V37.1721H114.404V32.4236H116.189C116.726 32.4236 117.147 32.5486 117.45 32.7986C117.753 33.0487 117.905 33.402 117.905 33.8586C117.905 34.189 117.84 34.463 117.712 34.6804C117.585 34.8979 117.386 35.074 117.114 35.2088L118.06 37.1232V37.1721H116.889L116.089 35.4958ZM115.497 34.6119H116.189C116.396 34.6119 116.552 34.5554 116.656 34.4423C116.762 34.3271 116.815 34.1673 116.815 33.9629C116.815 33.7585 116.762 33.5987 116.656 33.4835C116.55 33.3661 116.394 33.3074 116.189 33.3074H115.497V34.6119Z" fill="#F8B054"/>
<path d="M123.652 32.4236V35.5317C123.652 35.8839 123.58 36.1894 123.437 36.4481C123.294 36.7047 123.088 36.9003 122.821 37.0352C122.553 37.17 122.236 37.2374 121.871 37.2374C121.318 37.2374 120.883 37.0873 120.566 36.7873C120.248 36.4872 120.086 36.0763 120.08 35.5545V32.4236H121.179V35.5773C121.192 36.097 121.422 36.3568 121.871 36.3568C122.097 36.3568 122.268 36.2916 122.385 36.1611C122.501 36.0306 122.559 35.8187 122.559 35.5251V32.4236H123.652Z" fill="#F8B054"/>
<path d="M129.537 35.5643C129.522 35.8948 129.437 36.1872 129.281 36.4416C129.125 36.6938 128.906 36.8895 128.624 37.0286C128.344 37.1678 128.023 37.2374 127.662 37.2374C127.066 37.2374 126.597 37.0341 126.254 36.6275C125.912 36.2209 125.74 35.6469 125.74 34.9055V34.6706C125.74 34.2054 125.817 33.7988 125.971 33.4509C126.126 33.1008 126.35 32.8312 126.64 32.6421C126.931 32.4507 127.267 32.3551 127.649 32.3551C128.199 32.3551 128.642 32.5073 128.976 32.8117C129.31 33.1139 129.5 33.5313 129.546 34.064H128.456C128.448 33.7749 128.378 33.5672 128.247 33.4411C128.116 33.315 127.917 33.2519 127.649 33.2519C127.377 33.2519 127.178 33.3585 127.051 33.5716C126.925 33.7846 126.858 34.1249 126.852 34.5924V34.9283C126.852 35.4349 126.912 35.7969 127.033 36.0143C127.155 36.2318 127.365 36.3405 127.662 36.3405C127.913 36.3405 128.105 36.2785 128.238 36.1546C128.371 36.0306 128.441 35.8339 128.45 35.5643H129.537Z" fill="#F8B054"/>
<path d="M135.374 37.1721H134.287V35.1892H132.677V37.1721H131.584V32.4236H132.677V34.3086H134.287V32.4236H135.374V37.1721Z" fill="#F8B054"/>
<path d="M141.439 34.8957C141.439 35.3588 141.357 35.7686 141.193 36.1252C141.029 36.4818 140.796 36.7568 140.493 36.9504C140.192 37.1417 139.848 37.2374 139.462 37.2374C139.076 37.2374 138.733 37.145 138.434 36.9601C138.135 36.7732 137.902 36.5068 137.733 36.1611C137.567 35.8154 137.48 35.4186 137.472 34.9707V34.7033C137.472 34.238 137.553 33.8281 137.715 33.4737C137.879 33.1171 138.112 32.8421 138.415 32.6486C138.721 32.4551 139.067 32.3583 139.456 32.3583C139.84 32.3583 140.182 32.454 140.483 32.6453C140.784 32.8367 141.018 33.1095 141.184 33.4639C141.352 33.8162 141.437 34.2206 141.439 34.6772V34.8957ZM140.328 34.6967C140.328 34.2249 140.252 33.8673 140.1 33.6237C139.951 33.3781 139.736 33.2552 139.456 33.2552C138.907 33.2552 138.618 33.6857 138.587 34.5467L138.584 34.8957C138.584 35.361 138.657 35.7186 138.805 35.9687C138.952 36.2187 139.171 36.3437 139.462 36.3437C139.738 36.3437 139.951 36.2209 140.1 35.9752C140.25 35.7295 140.326 35.3762 140.328 34.9153V34.6967Z" fill="#F8B054"/>
<path d="M144.969 32.4236L145.982 35.7273L146.991 32.4236H148.429V37.1721H147.333V36.0633L147.439 33.7933L146.343 37.1721H145.62L144.521 33.7901L144.627 36.0633V37.1721H143.534V32.4236H144.969Z" fill="#F8B054"/>
<path d="M154.498 34.8957C154.498 35.3588 154.416 35.7686 154.252 36.1252C154.088 36.4818 153.854 36.7568 153.551 36.9504C153.25 37.1417 152.906 37.2374 152.52 37.2374C152.134 37.2374 151.791 37.145 151.492 36.9601C151.193 36.7732 150.96 36.5068 150.792 36.1611C150.626 35.8154 150.538 35.4186 150.53 34.9707V34.7033C150.53 34.238 150.611 33.8281 150.773 33.4737C150.937 33.1171 151.171 32.8421 151.474 32.6486C151.779 32.4551 152.126 32.3583 152.514 32.3583C152.898 32.3583 153.241 32.454 153.542 32.6453C153.843 32.8367 154.076 33.1095 154.242 33.4639C154.41 33.8162 154.496 34.2206 154.498 34.6772V34.8957ZM153.386 34.6967C153.386 34.2249 153.31 33.8673 153.159 33.6237C153.009 33.3781 152.794 33.2552 152.514 33.2552C151.966 33.2552 151.676 33.6857 151.645 34.5467L151.642 34.8957C151.642 35.361 151.716 35.7186 151.863 35.9687C152.01 36.2187 152.229 36.3437 152.52 36.3437C152.796 36.3437 153.009 36.2209 153.159 35.9752C153.308 35.7295 153.384 35.3762 153.386 34.9153V34.6967Z" fill="#F8B054"/>
<path d="M158.931 35.91C158.931 35.7426 158.874 35.6121 158.76 35.5186C158.647 35.4251 158.449 35.3284 158.165 35.2283C157.88 35.1283 157.648 35.0316 157.467 34.9381C156.88 34.6359 156.586 34.2206 156.586 33.6922C156.586 33.4291 156.658 33.1976 156.804 32.9976C156.951 32.7953 157.159 32.6388 157.427 32.5279C157.695 32.4149 157.996 32.3583 158.33 32.3583C158.656 32.3583 158.947 32.4192 159.205 32.541C159.464 32.6627 159.666 32.8367 159.809 33.0628C159.952 33.2867 160.024 33.5433 160.024 33.8325H158.934C158.934 33.639 158.877 33.4889 158.763 33.3824C158.651 33.2759 158.498 33.2226 158.305 33.2226C158.11 33.2226 157.955 33.2683 157.841 33.3596C157.729 33.4487 157.673 33.5629 157.673 33.702C157.673 33.8238 157.735 33.9347 157.86 34.0347C157.984 34.1325 158.203 34.2347 158.517 34.3412C158.83 34.4456 159.088 34.5587 159.289 34.6804C159.779 34.9761 160.024 35.3838 160.024 35.9035C160.024 36.3187 159.874 36.6449 159.576 36.8819C159.277 37.1189 158.867 37.2374 158.345 37.2374C157.978 37.2374 157.645 37.1689 157.346 37.0319C157.049 36.8927 156.825 36.7036 156.673 36.4644C156.524 36.2231 156.449 35.9458 156.449 35.6328H157.545C157.545 35.8871 157.607 36.0752 157.732 36.197C157.859 36.3166 158.063 36.3764 158.345 36.3764C158.526 36.3764 158.668 36.3361 158.772 36.2557C158.878 36.1731 158.931 36.0578 158.931 35.91ZM158.445 31.1516H159.554L158.688 32.1757H157.832L158.445 31.1516Z" fill="#F8B054"/>
<path d="M165.784 35.5643C165.769 35.8948 165.684 36.1872 165.529 36.4416C165.373 36.6938 165.154 36.8895 164.871 37.0286C164.591 37.1678 164.27 37.2374 163.909 37.2374C163.313 37.2374 162.844 37.0341 162.501 36.6275C162.159 36.2209 161.988 35.6469 161.988 34.9055V34.6706C161.988 34.2054 162.064 33.7988 162.218 33.4509C162.374 33.1008 162.597 32.8312 162.888 32.6421C163.178 32.4507 163.515 32.3551 163.897 32.3551C164.447 32.3551 164.889 32.5073 165.223 32.8117C165.558 33.1139 165.748 33.5313 165.793 34.064H164.703C164.695 33.7749 164.625 33.5672 164.495 33.4411C164.364 33.315 164.164 33.2519 163.897 33.2519C163.625 33.2519 163.425 33.3585 163.299 33.5716C163.172 33.7846 163.106 34.1249 163.099 34.5924V34.9283C163.099 35.4349 163.16 35.7969 163.28 36.0143C163.403 36.2318 163.612 36.3405 163.909 36.3405C164.16 36.3405 164.352 36.2785 164.485 36.1546C164.618 36.0306 164.689 35.8339 164.697 35.5643H165.784Z" fill="#F8B054"/>
<path d="M168.996 37.1721H167.906V32.4236H168.996V37.1721Z" fill="#F8B054"/>
<g clip-path="url(#clip0_135_34)">
<path d="M29.9605 30.6951L22.8757 36.1466V43.4504H28.5686V38.098H31.5929V43.4504H37.0454V36.1466L29.9605 30.6951Z" fill="white"/>
<path d="M37.3421 31.4969V27.7625H34.3584V29.2015L29.9606 25.8184L19.6616 33.7412L21.0833 35.5892L29.9606 28.7584L38.8379 35.5893L40.2595 33.7412L37.3421 31.4969Z" fill="white"/>
</g>
<path fill-rule="evenodd" clip-rule="evenodd" d="M56.176 37.7055V32.0879H65.7728V37.7055H56.176ZM173.21 32.0879H202V48.4726H196.85V37.7055H193.105V45.4297H187.956V37.7055H184.211V48.4726H179.061V37.7055H173.21V32.0879Z" fill="#F8B054"/>
<path fill-rule="evenodd" clip-rule="evenodd" d="M36.273 11.074C30.5737 9.61128 24.5431 10.2522 19.2718 12.8809C14.0006 15.5096 9.83652 19.9525 7.53268 25.4063C5.22885 30.8601 4.93729 36.9648 6.71075 42.6164C8.4842 48.268 12.2056 53.0935 17.202 56.2204C22.1984 59.3472 28.14 60.5689 33.9524 59.6646C39.7648 58.7603 45.0643 55.7897 48.8926 51.2899C52.7209 46.7902 54.8253 41.2923 54.8253 35.3648V32.556H59.9213V35.3648C59.9213 42.5187 57.3815 49.2025 52.7611 54.6332C48.1407 60.064 41.7448 63.6492 34.7298 64.7406C27.7149 65.832 20.544 64.3575 14.5138 60.5837C8.48369 56.81 3.99235 50.9861 1.85198 44.1652C-0.288397 37.3443 0.0634759 29.9766 2.84397 23.3944C5.62446 16.8122 10.65 11.45 17.0119 8.27746C23.3738 5.1049 30.6521 4.33139 37.5306 6.0968C44.4091 7.86222 50.4338 12.05 54.5153 17.9029L55.9804 20.004L51.8112 22.9573L50.3461 20.8563C46.9643 16.0067 41.9724 12.5368 36.273 11.074Z" fill="#F8B054"/>
<path fill-rule="evenodd" clip-rule="evenodd" d="M16.8029 7.8584C23.2654 4.63565 30.6591 3.8498 37.6468 5.64324C44.6345 7.43666 50.7539 11.6907 54.8992 17.635L56.6301 20.1172L51.6968 23.6118L49.962 21.1239C46.6439 16.3658 41.7467 12.9621 36.1565 11.5274C30.5664 10.0926 24.6513 10.7212 19.4806 13.2997C14.3099 15.8782 10.2244 20.2369 7.96379 25.5884C5.70316 30.9399 5.41703 36.9303 7.15728 42.4761C8.89751 48.0219 12.5489 52.7561 17.4502 55.8234C22.3514 58.8907 28.1793 60.0889 33.8803 59.2019C39.5813 58.315 44.78 55.4012 48.5359 50.9865C52.295 46.5681 54.3571 41.1768 54.3571 35.3647V32.0878H60.3893V35.3647C60.3893 42.6332 57.8077 49.4237 53.1175 54.9364C48.4248 60.4522 41.928 64.0943 34.8017 65.203C27.6753 66.3118 20.3907 64.8138 14.2654 60.9804C8.14012 57.1472 3.57879 51.232 1.40519 44.3052C-0.768389 37.3785 -0.411091 29.8966 2.41261 23.2121C5.23633 16.5276 10.3404 11.0811 16.8029 7.8584ZM37.4141 6.55011C30.6447 4.81272 23.482 5.57389 17.2207 8.69626C10.9594 11.8187 6.01234 17.0966 3.27508 23.5764C0.537789 30.0563 0.19134 37.3098 2.29851 44.0249C4.40566 50.7399 8.827 56.4725 14.762 60.1868C20.697 63.901 27.7542 65.3519 34.6577 64.2779C41.5613 63.2038 47.8564 59.6754 52.4044 54.3297C56.955 48.981 59.453 42.404 59.453 35.3647V33.024H55.2933V35.3647C55.2933 41.4076 53.1466 47.012 49.249 51.5932C45.3483 56.178 39.948 59.2054 34.0242 60.1271C28.1004 61.0487 22.0451 59.8035 16.9535 56.6171C11.862 53.4307 8.07064 48.514 6.26396 42.7565C4.4573 36.999 4.75428 30.7801 7.10132 25.224C9.44839 19.6679 13.691 15.1407 19.0628 12.4618C24.4347 9.78294 30.5807 9.12969 36.3893 10.6205C42.1977 12.1113 47.2844 15.6474 50.7299 20.5884L51.9253 22.3026L55.3305 19.8904L54.1312 18.1706C50.1135 12.4091 44.1835 8.28752 37.4141 6.55011Z" fill="#F8B054"/>
<defs>
<clipPath id="clip0_135_34">
<rect width="20.5979" height="20.5979" fill="white" transform="translate(19.6616 24.1294)"/>
</clipPath>
</defs>
</svg>
